<?xml version="1.0" encoding="UTF-8" standalone="no"?>
<svg
   viewBox="0 12.15 232.60001 54.700001"
   data-asc="0.95"
   width="232.60001"
   height="54.700001"
   version="1.1"
   id="svg274"
   sodipodi:docname="PSYEONE-merged.svg"
   inkscape:version="1.2.2 (b0a8486541, 2022-12-01)"
   xml:space="preserve"
   xmlns:inkscape="http://www.inkscape.org/namespaces/inkscape"
   xmlns:sodipodi="http://sodipodi.sourceforge.net/DTD/sodipodi-0.dtd"
   xmlns="http://www.w3.org/2000/svg"
   xmlns:svg="http://www.w3.org/2000/svg"><sodipodi:namedview
     id="namedview276"
     pagecolor="#ffffff"
     bordercolor="#999999"
     borderopacity="1"
     inkscape:showpageshadow="0"
     inkscape:pageopacity="0"
     inkscape:pagecheckerboard="0"
     inkscape:deskcolor="#d1d1d1"
     showgrid="false"
     inkscape:zoom="3.9641755"
     inkscape:cx="99.137892"
     inkscape:cy="24.09076"
     inkscape:window-width="1920"
     inkscape:window-height="1008"
     inkscape:window-x="0"
     inkscape:window-y="0"
     inkscape:window-maximized="1"
     inkscape:current-layer="svg274" /><defs
     id="defs264" /><g
     id="g272"><g
       fill="#000000"
       id="g270"><g
         id="g268"><path
           d="m 15.55,28.05 q 1.55,0 2.58,-0.48 1.02,-0.47 1.55,-1.42 0.52,-0.95 0.52,-2.25 0,-1.9 -1.15,-3 -1.15,-1.1 -3.5,-1.1 H 8.7 v 8.25 h 6.85 m 13.5,-4.15 q 0,2.1 -0.77,4.15 -0.78,2.05 -2.35,3.7 -1.58,1.65 -4.03,2.63 -2.45,0.97 -5.8,0.97 H 8.7 V 47.5 H 0 v -35 h 16.1 q 4.35,0 7.23,1.57 2.87,1.58 4.3,4.18 1.42,2.6 1.42,5.65 z M 40.2,36.85 q 0.25,1.45 1.03,2.32 0.77,0.88 1.9,1.25 1.12,0.38 2.47,0.38 2.35,0 3.63,-0.97 1.27,-0.98 1.27,-2.53 0,-1.25 -0.77,-2 -0.78,-0.75 -2.15,-1.28 -1.38,-0.52 -3.18,-1.07 -2,-0.55 -4.05,-1.28 -2.05,-0.72 -3.8,-1.85 -1.75,-1.12 -2.8,-2.92 -1.05,-1.8 -1,-4.5 0,-3.3 1.7,-5.6 1.7,-2.3 4.6,-3.48 2.9,-1.17 6.65,-1.17 3.4,0 6.05,1 2.65,1 4.38,2.92 1.72,1.93 2.42,4.78 l -8,1.4 q -0.2,-1.1 -0.9,-1.8 -0.7,-0.7 -1.67,-1.03 Q 47,19.1 46.05,19.1 q -1.2,0 -2.2,0.4 -1,0.4 -1.62,1.15 -0.63,0.75 -0.63,1.75 0,1.1 0.73,1.8 0.72,0.7 1.97,1.25 1.25,0.55 2.75,1.05 2.05,0.65 4.2,1.4 2.15,0.75 4,1.92 1.85,1.18 2.98,3.01 1.12,1.82 1.12,4.57 0,2.95 -1.45,5.3 -1.45,2.35 -4.35,3.75 -2.9,1.4 -7.35,1.4 -3.75,0 -6.72,-1.08 Q 36.5,45.7 34.6,43.6 32.7,41.5 32.1,38.45 Z m 47,-24.35 h 9.95 L 83.9,36 V 47.5 H 75.2 V 36 L 61.9,12.5 h 9.95 l 7.7,14.45 z m 39.9,7.3 h -17.55 v 6.55 h 13.1 v 6.8 h -13.1 v 7.05 h 17.55 v 7.3 h -26.25 v -35 h 26.25 z m 21.15,28.05 q -3.75,0 -7,-1.3 -3.25,-1.3 -5.72,-3.67 -2.48,-2.38 -3.88,-5.65 -1.4,-3.28 -1.4,-7.23 0,-3.95 1.4,-7.23 1.4,-3.27 3.88,-5.64 2.47,-2.38 5.72,-3.68 3.25,-1.3 7,-1.3 3.75,0 7.03,1.3 3.27,1.3 5.72,3.68 2.45,2.37 3.85,5.64 1.4,3.28 1.4,7.23 0,3.95 -1.4,7.23 -1.4,3.27 -3.88,5.65 -2.47,2.37 -5.72,3.67 -3.25,1.3 -7,1.3 m 0,-7.45 q 2.75,0 4.8,-1.35 2.05,-1.35 3.2,-3.7 1.15,-2.35 1.15,-5.35 0,-3.05 -1.15,-5.37 -1.15,-2.33 -3.2,-3.68 -2.05,-1.35 -4.8,-1.35 -2.8,0 -4.85,1.35 -2.05,1.35 -3.18,3.68 -1.12,2.32 -1.12,5.37 0,3 1.12,5.35 1.13,2.35 3.18,3.7 2.05,1.35 4.85,1.35 z m 52.6,-27.9 v 35 H 192.1 L 179.05,26.3 v 21.2 h -8.7 v -35 h 8.75 l 13.05,21.35 V 12.5 Z m 31.75,7.3 h -17.55 v 6.55 h 13.1 v 6.8 h -13.1 v 7.05 h 17.55 v 7.3 h -26.25 v -35 h 26.25 z"
           id="path266" /></g></g></g><path
     d="M 5.9835736,54.412823 H 5.4520375 L 2.4146904,63.084448 H 0 L 3.8422446,52.453735 H 7.6389279 L 11.465985,63.084448 H 9.0512937 L 5.9835736,54.412823 M 2.566558,58.832161 H 8.7627457 V 60.79125 H 2.566558 Z m 9.841004,-3.341079 h 2.004648 l 0.151867,0.820082 q 0.379669,-0.410041 0.896018,-0.668215 0.516348,-0.258175 1.123818,-0.258175 0.896016,0 1.512598,0.379668 0.613545,0.379668 0.941577,1.108632 0.324996,0.728963 0.324996,1.776847 v 4.434527 h -2.217262 v -4.161165 q 0,-0.759337 -0.309809,-1.154192 -0.312848,-0.394854 -0.935504,-0.394854 -0.637842,0 -0.956763,0.400929 -0.318922,0.403968 -0.318922,1.163303 v 4.145979 h -2.217262 z m 12.939095,7.593366 -0.151868,-0.941577 q -0.394854,0.485973 -0.850456,0.759335 -0.455603,0.273362 -1.214939,0.273362 -0.713776,0 -1.275685,-0.249061 Q 21.2918,62.674406 20.966803,62.18843 20.63877,61.702453 20.63877,61.019052 q 0,-0.941578 0.674291,-1.564234 0.677328,-0.622657 2.104881,-0.774523 l 1.776847,-0.197427 v -0.501162 q 0,-0.258174 -0.249062,-0.510274 -0.252099,-0.249064 -0.783635,-0.249064 -0.47079,0 -0.810972,0.242988 -0.343219,0.242987 -0.464714,0.69859 l -1.898341,-0.683402 q 0.334107,-1.017512 1.178491,-1.55816 0.841345,-0.53761 2.086657,-0.53761 1.549046,0 2.353944,0.774523 0.804897,0.774523 0.804897,2.080582 v 4.844569 h -2.065397 m -0.151868,-3.234774 -1.412364,0.167053 q -0.42523,0.06074 -0.643919,0.264251 -0.221726,0.206538 -0.221726,0.510272 0,0.288549 0.242987,0.485975 0.242989,0.197428 0.668216,0.197428 0.42523,0 0.728965,-0.173129 0.303734,-0.176164 0.470787,-0.501162 0.167054,-0.328033 0.167054,-0.814009 z M 29.006659,52.15 h 2.217264 v 10.934448 h -2.217264 z m 7.426314,11.040754 q -1.108631,0 -1.989463,-0.470788 -0.88083,-0.47079 -1.37288,-1.351619 -0.495088,-0.880831 -0.495088,-2.080584 0,-1.199751 0.510273,-2.074507 0.50724,-0.871718 1.397181,-1.351619 0.886904,-0.476863 1.980351,-0.476863 1.123818,0 2.013759,0.476863 0.886906,0.479901 1.403256,1.351619 0.516347,0.874756 0.516347,2.059322 0,1.214938 -0.522422,2.095769 -0.525463,0.880829 -1.427554,1.351619 -0.905129,0.470788 -2.01376,0.470788 m 0,-2.004648 q 0.394854,0 0.759336,-0.212614 0.364481,-0.212615 0.592284,-0.628731 0.227799,-0.419153 0.227799,-1.056998 0,-0.637842 -0.227799,-1.056995 -0.227803,-0.416118 -0.577097,-0.628731 -0.349294,-0.212614 -0.744149,-0.212614 -0.425228,0 -0.759338,0.212614 -0.334109,0.212613 -0.53761,0.628731 -0.20654,0.419153 -0.20654,1.056995 0,0.637845 0.197428,1.056998 0.197428,0.416116 0.531536,0.628731 0.334107,0.212614 0.74415,0.212614 z m 10.63071,-5.695024 h 2.004652 v 6.499921 q 0,1.290872 -0.637844,2.208151 -0.637844,0.920316 -1.837594,1.421477 -1.199752,0.501163 -2.931039,0.501163 l -0.318922,-1.837595 q 1.716101,-0.01518 2.612117,-0.567983 0.896017,-0.555835 0.896017,-1.60372 v -0.03036 l 0.318922,-0.182241 q -0.334108,0.51635 -0.956764,0.905129 -0.622655,0.385743 -1.488301,0.385743 -0.97195,0 -1.722174,-0.479899 -0.753263,-0.476864 -1.17849,-1.357695 -0.425228,-0.880832 -0.425228,-2.065397 0,-1.19975 0.425228,-2.074507 0.425227,-0.871718 1.17849,-1.35162 0.750224,-0.476863 1.722174,-0.476863 0.485977,0 0.911205,0.145794 0.425228,0.142755 0.759337,0.379668 0.334109,0.233875 0.531535,0.53761 l 0.136679,-0.956764 m -3.280332,3.796682 q 0,0.835271 0.425229,1.35162 0.425229,0.51635 1.108631,0.51635 0.410042,0 0.759336,-0.227802 0.349296,-0.227801 0.561909,-0.646954 0.212614,-0.416118 0.212614,-0.993214 0,-0.607468 -0.212614,-1.01751 -0.212613,-0.410043 -0.561909,-0.622658 -0.349294,-0.212613 -0.74415,-0.212613 -0.698588,0 -1.123817,0.507238 -0.425229,0.510272 -0.425229,1.345543 z M 57.63365,63.084458 H 55.613816 L 55.46195,62.249186 q -0.379669,0.425229 -0.886908,0.683403 -0.510273,0.258176 -1.117744,0.258176 -0.850455,0 -1.473111,-0.379668 -0.622657,-0.379669 -0.971953,-1.117745 -0.349293,-0.735037 -0.349293,-1.767734 v -4.434532 h 2.217263 v 4.161164 q 0,0.759335 0.312846,1.154191 0.309812,0.394855 0.947653,0.394855 0.607469,0 0.941578,-0.410042 0.334108,-0.41004 0.334108,-1.169378 v -4.13079 h 2.217261 z m 5.20905,0.10631 q -1.169379,0 -2.035021,-0.492051 -0.865644,-0.495087 -1.342508,-1.391104 -0.4799,-0.896019 -0.4799,-2.09577 0,-1.108631 0.470788,-1.974274 0.470789,-0.865644 1.321246,-1.360733 0.850456,-0.492048 1.928713,-0.492048 1.139007,0 1.974278,0.461677 0.835269,0.464713 1.306059,1.315168 0.470787,0.85046 0.470787,1.974278 0,0.18224 -0.01518,0.379668 -0.01518,0.197427 -0.04556,0.440414 h -5.041994 q 0.07594,0.410042 0.288547,0.704665 0.212613,0.29766 0.53761,0.455603 0.328033,0.160978 0.753262,0.160978 0.470788,0 0.850456,-0.197427 0.379669,-0.197427 0.56191,-0.561909 l 1.989462,0.546722 q -0.455603,1.01751 -1.366805,1.57031 -0.911204,0.555833 -2.126144,0.555833 m 1.199752,-4.677513 q -0.01518,-0.379668 -0.197427,-0.668218 -0.182241,-0.288547 -0.47079,-0.455601 -0.288547,-0.167054 -0.637842,-0.151867 -0.349295,0.01518 -0.631767,0.173127 -0.279437,0.160979 -0.476864,0.440416 -0.197427,0.282475 -0.242988,0.662143 z m 12.40756,4.571207 -0.151868,-0.941579 q -0.394854,0.485975 -0.850455,0.759337 -0.455604,0.273361 -1.214939,0.273361 -0.713776,0 -1.275687,-0.249062 -0.561907,-0.252101 -0.889941,-0.738075 -0.324997,-0.485977 -0.324997,-1.169379 0,-0.941577 0.674291,-1.564234 0.677328,-0.622656 2.104882,-0.774523 L 76.29815,58.48288 v -0.501162 q 0,-0.258174 -0.249061,-0.510274 -0.2521,-0.249062 -0.783636,-0.249062 -0.470789,0 -0.810972,0.242987 -0.343219,0.242988 -0.464713,0.698591 l -1.898341,-0.683403 q 0.334107,-1.017513 1.175453,-1.55816 0.844382,-0.537609 2.089694,-0.537609 1.549046,0 2.353943,0.774522 0.804897,0.774523 0.804897,2.080583 v 4.844569 h -2.065396 m -0.151868,-3.234774 -1.412364,0.167051 q -0.42523,0.06074 -0.646955,0.264251 -0.21869,0.206539 -0.21869,0.510273 0,0.288549 0.242988,0.485976 0.242989,0.197428 0.668217,0.197428 0.425228,0 0.728963,-0.173129 0.303736,-0.176166 0.470787,-0.501162 0.167054,-0.328033 0.167054,-0.814009 z m 3.811871,-4.358592 h 2.004649 l 0.151867,0.820082 q 0.379669,-0.410041 0.896019,-0.668217 0.516347,-0.258173 1.123818,-0.258173 0.896016,0 1.509561,0.379667 0.616581,0.379669 0.941577,1.108632 0.328032,0.728964 0.328032,1.776847 v 4.434528 H 84.84828 v -4.161167 q 0,-0.759337 -0.312846,-1.154194 -0.30981,-0.394854 -0.932466,-0.394854 -0.637842,0 -0.956764,0.400931 -0.318921,0.403966 -0.318921,1.163303 v 4.145979 h -2.217264 z m 13.971794,1.169376 -0.303734,0.01518 v -4.525644 h 2.217261 v 10.934445 h -2.004655 l -0.136681,-0.956769 q -0.303736,0.440416 -0.89602,0.753263 -0.592284,0.309809 -1.32124,0.309809 -0.956772,0 -1.710029,-0.479901 -0.750221,-0.476864 -1.175452,-1.357693 -0.425229,-0.880832 -0.425229,-2.065397 0,-1.199751 0.425229,-2.074507 0.425231,-0.871719 1.169372,-1.35162 0.744151,-0.476863 1.716109,-0.476863 0.865638,0 1.488293,0.373594 0.622656,0.370555 0.956772,0.902091 m -3.371455,2.627305 q 0,0.83527 0.425221,1.342507 0.42523,0.510275 1.108641,0.510275 0.410033,0 0.759336,-0.212615 0.349291,-0.212615 0.561902,-0.622656 0.212621,-0.410041 0.212621,-1.017511 0,-0.607469 -0.212621,-1.017512 -0.212611,-0.410041 -0.561902,-0.631767 -0.349303,-0.218689 -0.759336,-0.218689 -0.698596,0 -1.117747,0.51635 -0.416115,0.516347 -0.416115,1.351618 z m 15.460094,-6.834029 q 1.70091,0 2.95231,0.659105 1.25443,0.662141 1.953,1.867968 0.69861,1.208864 0.69861,2.80347 0,1.594606 -0.69861,2.788284 -0.69857,1.190641 -1.953,1.852782 -1.2514,0.659104 -2.95231,0.659104 h -4.14598 V 52.453735 h 4.14598 m -0.1215,8.671625 q 1.59461,0 2.46633,-0.896017 0.87477,-0.896018 0.87477,-2.445065 0,-1.564233 -0.87477,-2.469364 -0.87172,-0.902091 -2.46633,-0.902091 h -1.68572 v 6.712537 z m 7.33519,-5.634278 h 2.21727 v 7.593366 h -2.21727 v -7.593366 m 1.10863,-0.774525 q -0.62264,0 -1.01143,-0.373593 -0.38574,-0.370556 -0.38574,-0.902092 0,-0.546722 0.38574,-0.917279 0.38879,-0.373593 1.01143,-0.373593 0.60747,0 0.99321,0.373593 0.3888,0.370557 0.3888,0.917279 0,0.531536 -0.3888,0.902092 -0.38574,0.373593 -0.99321,0.373593 z m 8.39828,0.774525 h 2.00464 v 6.499921 q 0,1.290872 -0.63783,2.208151 -0.63786,0.920316 -1.83759,1.421477 -1.19977,0.501163 -2.93105,0.501163 l -0.31892,-1.837595 q 1.7161,-0.01518 2.61211,-0.567983 0.89602,-0.555835 0.89602,-1.60372 v -0.03036 l 0.31893,-0.182241 q -0.33412,0.51635 -0.95677,0.905129 -0.62266,0.385743 -1.48831,0.385743 -0.97195,0 -1.72521,-0.479899 -0.75022,-0.476864 -1.17545,-1.357695 -0.42523,-0.880832 -0.42523,-2.065397 0,-1.19975 0.42523,-2.074507 0.42523,-0.871718 1.17545,-1.35162 0.75326,-0.476863 1.72521,-0.476863 0.48599,0 0.91121,0.145794 0.42523,0.142755 0.75933,0.379668 0.33411,0.233875 0.53155,0.53761 l 0.13668,-0.956764 m -3.28033,3.796682 q 0,0.835271 0.42522,1.35162 0.42523,0.51635 1.10864,0.51635 0.41003,0 0.75932,-0.227802 0.3493,-0.227801 0.56192,-0.646954 0.21261,-0.416118 0.21261,-0.993214 0,-0.607468 -0.21261,-1.01751 -0.21262,-0.410043 -0.56192,-0.622658 -0.34929,-0.212613 -0.74415,-0.212613 -0.69858,0 -1.12381,0.507238 -0.42522,0.510272 -0.42522,1.345543 z m 7.25924,-3.796682 h 2.21728 v 7.593366 h -2.21728 v -7.593366 m 1.10864,-0.774524 q -0.62265,0 -1.01144,-0.373594 -0.38574,-0.370556 -0.38574,-0.902091 0,-0.546723 0.38574,-0.917279 0.38879,-0.373594 1.01144,-0.373594 0.60746,0 0.9932,0.373594 0.3888,0.370556 0.3888,0.917279 0,0.531535 -0.3888,0.902091 -0.38574,0.373594 -0.9932,0.373594 z m 3.66,0.774524 v -2.126143 h 2.26283 v 2.126143 h 1.56423 v 1.959087 h -1.56423 v 2.733613 q 0,0.516349 0.23387,0.728964 0.23692,0.212614 0.6014,0.221724 0.36448,0.006 0.72896,-0.05466 v 1.928706 q -0.77453,0.136682 -1.47311,0.08201 -0.69858,-0.05163 -1.22405,-0.370555 -0.52244,-0.318923 -0.82617,-0.941577 -0.30373,-0.622656 -0.30373,-1.594607 v -2.733616 h -1.06306 v -1.959087 z m 9.46135,7.593366 -0.15188,-0.941577 q -0.39485,0.485975 -0.85047,0.759336 -0.45558,0.273363 -1.21491,0.273363 -0.71379,0 -1.27569,-0.249063 -0.56191,-0.252101 -0.88996,-0.738077 -0.32499,-0.485975 -0.32499,-1.169378 0,-0.941577 0.6743,-1.564234 0.67732,-0.622657 2.10488,-0.774522 l 1.77684,-0.197428 v -0.501163 q 0,-0.258176 -0.25209,-0.510275 -0.24906,-0.249063 -0.7806,-0.249063 -0.47078,0 -0.81402,0.242988 -0.34017,0.242987 -0.46166,0.698589 l -1.89836,-0.683402 q 0.33412,-1.017512 1.17546,-1.55816 0.84439,-0.53761 2.0897,-0.53761 1.54904,0 2.35393,0.774524 0.80489,0.774522 0.80489,2.080581 v 4.844569 h -2.06537 m -0.15188,-3.234774 -1.41236,0.167054 q -0.42523,0.06074 -0.64696,0.264249 -0.2187,0.206539 -0.2187,0.510273 0,0.288549 0.243,0.485975 0.24299,0.197428 0.66822,0.197428 0.42523,0 0.72896,-0.173128 0.30373,-0.176166 0.47078,-0.501163 0.16706,-0.328033 0.16706,-0.814009 z m 3.81187,-7.699674 h 2.21725 v 10.934446 h -2.21725 z m 15.96126,2.262823 h -5.37611 v 2.353943 h 4.02448 v 1.852782 h -4.02448 v 2.505811 h 5.37611 v 1.959089 h -7.71486 V 52.453739 h 7.71486 z m 0.95676,1.078259 h 2.61212 l 1.42755,2.202075 1.41237,-2.202075 h 2.59693 l -2.67287,3.781496 2.67287,3.81187 H 167.13 l -1.41237,-2.202077 -1.42755,2.202077 h -2.61212 l 2.68806,-3.81187 z m 11.16225,6.423988 0.30373,-0.01518 v 4.221912 h -2.21726 V 55.491083 h 2.00466 l 0.13669,0.956763 q 0.28853,-0.440415 0.88081,-0.753262 0.59228,-0.309809 1.33643,-0.309809 0.95677,0 1.70091,0.476863 0.74416,0.479901 1.17547,1.351619 0.43433,0.874757 0.43433,2.074507 0,1.184566 -0.42523,2.065397 -0.42523,0.88083 -1.17848,1.357694 -0.75023,0.479901 -1.707,0.479901 -0.88082,0 -1.4974,-0.379668 -0.61355,-0.37967 -0.94766,-0.896017 m 3.37145,-2.627307 q 0,-0.83527 -0.42523,-1.345542 -0.42523,-0.507239 -1.10863,-0.507239 -0.42522,0 -0.77452,0.212614 -0.3493,0.212615 -0.55583,0.622656 -0.20351,0.410043 -0.20351,1.017511 0,0.592283 0.20351,1.011437 0.20653,0.416117 0.55583,0.634806 0.3493,0.221728 0.77452,0.221728 0.6834,0 1.10863,-0.51635 0.42523,-0.516349 0.42523,-1.351621 z m 3.73596,-7.137763 h 2.21725 v 10.934448 h -2.21725 z m 7.42631,11.040755 q -1.10864,0 -1.98949,-0.470789 -0.88082,-0.47079 -1.37286,-1.351619 -0.4951,-0.880831 -0.4951,-2.080584 0,-1.19975 0.51028,-2.074507 0.50723,-0.871718 1.39718,-1.351619 0.88691,-0.476863 1.98034,-0.476863 1.12383,0 2.01376,0.476863 0.88691,0.479901 1.40326,1.351619 0.51636,0.874757 0.51636,2.059322 0,1.214938 -0.52242,2.095769 -0.52548,0.880829 -1.43059,1.351619 -0.90211,0.470789 -2.01072,0.470789 m 0,-2.004649 q 0.39482,0 0.75933,-0.212614 0.36446,-0.212615 0.59227,-0.628731 0.22781,-0.419153 0.22781,-1.056998 0,-0.637841 -0.22781,-1.056995 -0.22781,-0.416118 -0.57709,-0.628731 -0.34929,-0.212614 -0.74416,-0.212614 -0.42521,0 -0.75934,0.212614 -0.33409,0.212613 -0.53759,0.628731 -0.20655,0.419154 -0.20655,1.056995 0,0.637845 0.19743,1.056998 0.19744,0.416116 0.53153,0.628731 0.33411,0.212614 0.74417,0.212614 z m 5.30015,-5.695024 h 2.01983 l 0.15188,1.002323 q 0.28855,-0.394855 0.68948,-0.659104 0.40395,-0.267286 0.89602,-0.358407 0.49507,-0.09112 1.08738,0.01518 v 2.095771 q -0.39487,-0.136682 -0.85047,-0.08202 -0.45561,0.05163 -0.86565,0.303734 -0.41003,0.249062 -0.66214,0.735038 -0.24906,0.485975 -0.24906,1.230124 v 3.310709 h -2.21727 z m 10.35736,7.593366 -0.15188,-0.941577 q -0.39484,0.485973 -0.85045,0.759335 -0.45561,0.273362 -1.21494,0.273362 -0.71377,0 -1.27568,-0.249061 -0.56191,-0.252101 -0.88994,-0.738077 -0.32499,-0.485976 -0.32499,-1.169378 0,-0.941578 0.67428,-1.564234 0.67732,-0.622657 2.10488,-0.774523 l 1.77684,-0.197427 v -0.501163 q 0,-0.258174 -0.25209,-0.510274 -0.24906,-0.249064 -0.78059,-0.249064 -0.4708,0 -0.81401,0.242988 -0.34019,0.242987 -0.46169,0.69859 l -1.89833,-0.683402 q 0.33409,-1.017512 1.17544,-1.55816 0.84439,-0.53761 2.08969,-0.53761 1.54905,0 2.35395,0.774523 0.8049,0.774523 0.8049,2.080582 v 4.844569 h -2.06539 m -0.15188,-3.234774 -1.41235,0.167053 q -0.42524,0.06074 -0.64697,0.264251 -0.21868,0.206538 -0.21868,0.510272 0,0.288549 0.24298,0.485975 0.24299,0.197428 0.66822,0.197428 0.42522,0 0.72896,-0.173129 0.30373,-0.176164 0.4708,-0.501162 0.16704,-0.328033 0.16704,-0.814009 z m 4.40416,-4.358592 v -2.126144 h 2.26282 v 2.126144 h 1.56424 v 1.959088 h -1.56424 v 2.73361 q 0,0.51635 0.23388,0.728964 0.23691,0.212616 0.60139,0.221727 0.36449,0.006 0.72897,-0.05467 v 1.928715 q -0.77452,0.136681 -1.47311,0.082 -0.6986,-0.05163 -1.22405,-0.370554 -0.52242,-0.318923 -0.82617,-0.941578 -0.30373,-0.622656 -0.30373,-1.594609 v -2.73361 h -1.06307 v -1.959087 z m 5.36092,0 h 2.21726 v 7.593366 h -2.21726 v -7.593366 m 1.10864,-0.774525 q -0.62266,0 -1.01144,-0.373593 -0.38577,-0.370556 -0.38577,-0.902092 0,-0.546722 0.38577,-0.917279 0.38878,-0.373593 1.01144,-0.373593 0.60745,0 0.9932,0.373593 0.38878,0.370557 0.38878,0.917279 0,0.531536 -0.38878,0.902092 -0.38575,0.373593 -0.9932,0.373593 z m 6.59104,8.474197 q -1.10864,0 -1.98946,-0.470788 -0.88083,-0.47079 -1.37289,-1.351619 -0.49508,-0.880831 -0.49508,-2.080584 0,-1.199751 0.50723,-2.074507 0.51028,-0.871718 1.39718,-1.351619 0.88995,-0.476863 1.98338,-0.476863 1.12382,0 2.01073,0.476863 0.88995,0.479901 1.40629,1.351619 0.51635,0.874756 0.51635,2.059322 0,1.214938 -0.52545,2.095769 -0.52243,0.880829 -1.42757,1.351619 -0.90209,0.470788 -2.01071,0.470788 m 0,-2.004648 q 0.39485,0 0.75932,-0.212614 0.36449,-0.212615 0.5923,-0.628731 0.22779,-0.419153 0.22779,-1.056998 0,-0.637842 -0.22779,-1.056995 -0.22781,-0.416118 -0.57711,-0.628731 -0.34929,-0.212614 -0.74415,-0.212614 -0.42523,0 -0.75933,0.212614 -0.3341,0.212613 -0.54065,0.628731 -0.2035,0.419153 -0.2035,1.056995 0,0.637845 0.19743,1.056998 0.19741,0.416116 0.53154,0.628731 0.3341,0.212614 0.74415,0.212614 z m 5.30018,-5.695024 h 2.00463 l 0.15186,0.820082 q 0.37968,-0.410041 0.89601,-0.668215 0.51636,-0.258175 1.12382,-0.258175 0.89603,0 1.50957,0.379668 0.61659,0.379668 0.94157,1.108632 0.32804,0.728963 0.32804,1.776847 v 4.434527 h -2.21727 v -4.161165 q 0,-0.759337 -0.31283,-1.154192 -0.3098,-0.394854 -0.93246,-0.394854 -0.63786,0 -0.95677,0.400929 -0.31894,0.403968 -0.31894,1.163303 v 4.145979 h -2.21723 z"
     id="path326"
     style="fill:#000000;stroke-width:0.303736" /></svg>
