<svg xmlns="http://www.w3.org/2000/svg" viewBox="0 12.149999618530273 232.60000610351562 35.69999694824219" data-asc="0.95" width="232.60000610351562" height="35.69999694824219"><defs/><g><g fill="#000000"><g transform="translate(0, 0)"><path d="M15.55 28.05Q17.10 28.05 18.13 27.57Q19.15 27.10 19.68 26.15Q20.20 25.20 20.20 23.90Q20.20 22 19.05 20.90Q17.90 19.80 15.55 19.80L8.70 19.80L8.70 28.05L15.55 28.05M29.05 23.90Q29.05 26 28.28 28.05Q27.50 30.10 25.93 31.75Q24.35 33.40 21.90 34.38Q19.45 35.35 16.10 35.35L8.70 35.35L8.70 47.50L0 47.50L0 12.50L16.10 12.50Q20.45 12.50 23.33 14.07Q26.20 15.65 27.63 18.25Q29.05 20.85 29.05 23.90ZM40.20 36.85Q40.45 38.30 41.23 39.17Q42 40.05 43.13 40.42Q44.25 40.80 45.60 40.80Q47.95 40.80 49.23 39.83Q50.50 38.85 50.50 37.30Q50.50 36.05 49.73 35.30Q48.95 34.55 47.58 34.02Q46.20 33.50 44.40 32.95Q42.40 32.40 40.35 31.67Q38.30 30.95 36.55 29.82Q34.80 28.70 33.75 26.90Q32.70 25.10 32.75 22.40Q32.75 19.10 34.45 16.80Q36.15 14.50 39.05 13.32Q41.95 12.15 45.70 12.15Q49.10 12.15 51.75 13.15Q54.40 14.15 56.13 16.07Q57.85 18 58.55 20.85L50.55 22.25Q50.35 21.15 49.65 20.45Q48.95 19.75 47.98 19.42Q47 19.10 46.05 19.10Q44.85 19.10 43.85 19.50Q42.85 19.90 42.23 20.65Q41.60 21.40 41.60 22.40Q41.60 23.50 42.33 24.20Q43.05 24.90 44.30 25.45Q45.55 26 47.05 26.50Q49.10 27.15 51.25 27.90Q53.40 28.65 55.25 29.82Q57.10 31 58.23 32.83Q59.35 34.65 59.35 37.40Q59.35 40.35 57.90 42.70Q56.45 45.05 53.55 46.45Q50.65 47.85 46.20 47.85Q42.45 47.85 39.48 46.77Q36.50 45.70 34.60 43.60Q32.70 41.50 32.10 38.45L40.20 36.85ZM87.20 12.50L97.15 12.50L83.90 36L83.90 47.50L75.20 47.50L75.20 36L61.90 12.50L71.85 12.50L79.55 26.95L87.20 12.50ZM127.10 19.80L109.55 19.80L109.55 26.35L122.65 26.35L122.65 33.15L109.55 33.15L109.55 40.20L127.10 40.20L127.10 47.50L100.85 47.50L100.85 12.50L127.10 12.50L127.10 19.80ZM148.25 47.85Q144.50 47.85 141.25 46.55Q138 45.25 135.53 42.88Q133.05 40.50 131.65 37.23Q130.25 33.95 130.25 30Q130.25 26.05 131.65 22.77Q133.05 19.50 135.53 17.13Q138 14.75 141.25 13.45Q144.50 12.15 148.25 12.15Q152 12.15 155.28 13.45Q158.55 14.75 161 17.13Q163.45 19.50 164.85 22.77Q166.25 26.05 166.25 30Q166.25 33.95 164.85 37.23Q163.45 40.50 160.97 42.88Q158.50 45.25 155.25 46.55Q152 47.85 148.25 47.85M148.25 40.40Q151 40.40 153.05 39.05Q155.10 37.70 156.25 35.35Q157.40 33 157.40 30Q157.40 26.95 156.25 24.63Q155.10 22.30 153.05 20.95Q151 19.60 148.25 19.60Q145.45 19.60 143.40 20.95Q141.35 22.30 140.22 24.63Q139.10 26.95 139.10 30Q139.10 33 140.22 35.35Q141.35 37.70 143.40 39.05Q145.45 40.40 148.25 40.40ZM200.85 12.50L200.85 47.50L192.10 47.50L179.05 26.30L179.05 47.50L170.35 47.50L170.35 12.50L179.10 12.50L192.15 33.85L192.15 12.50L200.85 12.50ZM232.60 19.80L215.05 19.80L215.05 26.35L228.15 26.35L228.15 33.15L215.05 33.15L215.05 40.20L232.60 40.20L232.60 47.50L206.35 47.50L206.35 12.50L232.60 12.50L232.60 19.80Z"/></g></g></g></svg>