<svg xmlns="http://www.w3.org/2000/svg" viewBox="0 11.5 678.3499755859375 46" data-asc="0.95" width="678.3499755859375" height="46"><defs/><g><g fill="#000000"><g transform="translate(0, 0)"><path d="M19.70 18.95L17.95 18.95L7.95 47.50L0 47.50L12.65 12.50L25.15 12.50L37.75 47.50L29.80 47.50L19.70 18.95M8.45 33.50L28.85 33.50L28.85 39.95L8.45 39.95L8.45 33.50ZM40.85 22.50L47.45 22.50L47.95 25.20Q49.20 23.85 50.90 23Q52.60 22.15 54.60 22.15Q57.55 22.15 59.58 23.40Q61.60 24.65 62.68 27.05Q63.75 29.45 63.75 32.90L63.75 47.50L56.45 47.50L56.45 33.80Q56.45 31.30 55.43 30Q54.40 28.70 52.35 28.70Q50.25 28.70 49.20 30.02Q48.15 31.35 48.15 33.85L48.15 47.50L40.85 47.50L40.85 22.50ZM83.45 47.50L82.95 44.40Q81.65 46 80.15 46.90Q78.65 47.80 76.15 47.80Q73.80 47.80 71.95 46.98Q70.10 46.15 69.03 44.55Q67.95 42.95 67.95 40.70Q67.95 37.60 70.17 35.55Q72.40 33.50 77.10 33L82.95 32.35L82.95 30.70Q82.95 29.85 82.13 29.02Q81.30 28.20 79.55 28.20Q78 28.20 76.88 29Q75.75 29.80 75.35 31.30L69.10 29.05Q70.20 25.70 72.98 23.92Q75.75 22.15 79.85 22.15Q84.95 22.15 87.60 24.70Q90.25 27.25 90.25 31.55L90.25 47.50L83.45 47.50M82.95 36.85L78.30 37.40Q76.90 37.60 76.18 38.27Q75.45 38.95 75.45 39.95Q75.45 40.90 76.25 41.55Q77.05 42.20 78.45 42.20Q79.85 42.20 80.85 41.63Q81.85 41.05 82.40 39.98Q82.95 38.90 82.95 37.30L82.95 36.85ZM95.50 11.50L102.80 11.50L102.80 47.50L95.50 47.50L95.50 11.50ZM119.95 47.85Q116.30 47.85 113.40 46.30Q110.50 44.75 108.88 41.85Q107.25 38.95 107.25 35Q107.25 31.05 108.93 28.17Q110.60 25.30 113.53 23.72Q116.45 22.15 120.05 22.15Q123.75 22.15 126.68 23.72Q129.60 25.30 131.30 28.17Q133 31.05 133 34.95Q133 38.95 131.28 41.85Q129.55 44.75 126.58 46.30Q123.60 47.85 119.95 47.85M119.95 41.25Q121.25 41.25 122.45 40.55Q123.65 39.85 124.40 38.48Q125.15 37.10 125.15 35Q125.15 32.90 124.40 31.52Q123.65 30.15 122.50 29.45Q121.35 28.75 120.05 28.75Q118.65 28.75 117.55 29.45Q116.45 30.15 115.78 31.52Q115.10 32.90 115.10 35Q115.10 37.10 115.75 38.48Q116.40 39.85 117.50 40.55Q118.60 41.25 119.95 41.25ZM154.95 22.50L161.55 22.50L161.55 43.90Q161.55 48.15 159.45 51.17Q157.35 54.20 153.40 55.85Q149.45 57.50 143.75 57.50L142.70 51.45Q148.35 51.40 151.30 49.58Q154.25 47.75 154.25 44.30L154.25 44.20L155.30 43.60Q154.20 45.30 152.15 46.58Q150.10 47.85 147.25 47.85Q144.05 47.85 141.58 46.27Q139.10 44.70 137.70 41.80Q136.30 38.90 136.30 35Q136.30 31.05 137.70 28.17Q139.10 25.30 141.58 23.72Q144.05 22.15 147.25 22.15Q148.85 22.15 150.25 22.63Q151.65 23.10 152.75 23.88Q153.85 24.65 154.50 25.65L154.95 22.50M144.15 35Q144.15 37.75 145.55 39.45Q146.95 41.15 149.20 41.15Q150.55 41.15 151.70 40.40Q152.85 39.65 153.55 38.27Q154.25 36.90 154.25 35Q154.25 33 153.55 31.65Q152.85 30.30 151.70 29.60Q150.55 28.90 149.25 28.90Q146.95 28.90 145.55 30.57Q144.15 32.25 144.15 35ZM195.55 47.50L195.05 44.40Q193.75 46 192.25 46.90Q190.75 47.80 188.25 47.80Q185.90 47.80 184.05 46.98Q182.20 46.15 181.13 44.55Q180.05 42.95 180.05 40.70Q180.05 37.60 182.28 35.55Q184.50 33.50 189.20 33L195.05 32.35L195.05 30.70Q195.05 29.85 194.23 29.02Q193.40 28.20 191.65 28.20Q190.10 28.20 188.98 29Q187.85 29.80 187.45 31.30L181.20 29.05Q182.30 25.70 185.08 23.92Q187.85 22.15 191.95 22.15Q197.05 22.15 199.70 24.70Q202.35 27.25 202.35 31.55L202.35 47.50L195.55 47.50M195.05 36.85L190.40 37.40Q189 37.60 188.28 38.27Q187.55 38.95 187.55 39.95Q187.55 40.90 188.35 41.55Q189.15 42.20 190.55 42.20Q191.95 42.20 192.95 41.63Q193.95 41.05 194.50 39.98Q195.05 38.90 195.05 37.30L195.05 36.85ZM207.60 22.50L214.20 22.50L214.70 25.20Q215.95 23.85 217.65 23Q219.35 22.15 221.35 22.15Q224.30 22.15 226.33 23.40Q228.35 24.65 229.43 27.05Q230.50 29.45 230.50 32.90L230.50 47.50L223.20 47.50L223.20 33.80Q223.20 31.30 222.18 30Q221.15 28.70 219.10 28.70Q217 28.70 215.95 30.02Q214.90 31.35 214.90 33.85L214.90 47.50L207.60 47.50L207.60 22.50ZM253.60 26.35L252.60 26.40L252.60 11.50L259.90 11.50L259.90 47.50L253.30 47.50L252.85 44.35Q251.85 45.80 249.90 46.83Q247.95 47.85 245.55 47.85Q242.40 47.85 239.93 46.27Q237.45 44.70 236.05 41.80Q234.65 38.90 234.65 35Q234.65 31.05 236.05 28.17Q237.45 25.30 239.90 23.72Q242.35 22.15 245.55 22.15Q248.40 22.15 250.45 23.38Q252.50 24.60 253.60 26.35M242.50 35Q242.50 37.75 243.90 39.42Q245.30 41.10 247.55 41.10Q248.90 41.10 250.05 40.40Q251.20 39.70 251.90 38.35Q252.60 37 252.60 35Q252.60 33 251.90 31.65Q251.20 30.30 250.05 29.57Q248.90 28.85 247.55 28.85Q245.25 28.85 243.88 30.55Q242.50 32.25 242.50 35ZM293.40 12.50Q299.00 12.50 303.13 14.67Q307.25 16.85 309.55 20.82Q311.85 24.80 311.85 30.05Q311.85 35.30 309.55 39.23Q307.25 43.15 303.13 45.33Q299.00 47.50 293.40 47.50L279.75 47.50L279.75 12.50L293.40 12.50M293.00 41.05Q298.25 41.05 301.13 38.10Q304.00 35.15 304.00 30.05Q304.00 24.90 301.13 21.92Q298.25 18.95 293.00 18.95L287.45 18.95L287.45 41.05L293.00 41.05ZM317.15 22.50L324.45 22.50L324.45 47.50L317.15 47.50L317.15 22.50M320.80 19.95Q318.75 19.95 317.48 18.72Q316.20 17.50 316.20 15.75Q316.20 13.95 317.48 12.73Q318.75 11.50 320.80 11.50Q322.80 11.50 324.08 12.73Q325.35 13.95 325.35 15.75Q325.35 17.50 324.08 18.72Q322.80 19.95 320.80 19.95ZM348.45 22.50L355.05 22.50L355.05 43.90Q355.05 48.15 352.95 51.17Q350.85 54.20 346.90 55.85Q342.95 57.50 337.25 57.50L336.20 51.45Q341.85 51.40 344.80 49.58Q347.75 47.75 347.75 44.30L347.75 44.20L348.80 43.60Q347.70 45.30 345.65 46.58Q343.60 47.85 340.75 47.85Q337.55 47.85 335.08 46.27Q332.60 44.70 331.20 41.80Q329.80 38.90 329.80 35Q329.80 31.05 331.20 28.17Q332.60 25.30 335.08 23.72Q337.55 22.15 340.75 22.15Q342.35 22.15 343.75 22.63Q345.15 23.10 346.25 23.88Q347.35 24.65 348 25.65L348.45 22.50M337.65 35Q337.65 37.75 339.05 39.45Q340.45 41.15 342.70 41.15Q344.05 41.15 345.20 40.40Q346.35 39.65 347.05 38.27Q347.75 36.90 347.75 35Q347.75 33 347.05 31.65Q346.35 30.30 345.20 29.60Q344.05 28.90 342.75 28.90Q340.45 28.90 339.05 30.57Q337.65 32.25 337.65 35ZM361.55 22.50L368.85 22.50L368.85 47.50L361.55 47.50L361.55 22.50M365.20 19.95Q363.15 19.95 361.88 18.72Q360.60 17.50 360.60 15.75Q360.60 13.95 361.88 12.73Q363.15 11.50 365.20 11.50Q367.20 11.50 368.48 12.73Q369.75 13.95 369.75 15.75Q369.75 17.50 368.48 18.72Q367.20 19.95 365.20 19.95ZM377.25 22.50L377.25 15.50L384.70 15.50L384.70 22.50L389.85 22.50L389.85 28.95L384.70 28.95L384.70 37.95Q384.70 39.65 385.48 40.35Q386.25 41.05 387.45 41.08Q388.65 41.10 389.85 40.90L389.85 47.25Q387.30 47.70 385 47.52Q382.70 47.35 380.98 46.30Q379.25 45.25 378.25 43.20Q377.25 41.15 377.25 37.95L377.25 28.95L373.75 28.95L373.75 22.50L377.25 22.50ZM408.40 47.50L407.90 44.40Q406.60 46 405.10 46.90Q403.60 47.80 401.10 47.80Q398.75 47.80 396.90 46.98Q395.05 46.15 393.97 44.55Q392.90 42.95 392.90 40.70Q392.90 37.60 395.13 35.55Q397.35 33.50 402.05 33L407.90 32.35L407.90 30.70Q407.90 29.85 407.07 29.02Q406.25 28.20 404.50 28.20Q402.95 28.20 401.82 29Q400.70 29.80 400.30 31.30L394.05 29.05Q395.15 25.70 397.92 23.92Q400.70 22.15 404.80 22.15Q409.90 22.15 412.55 24.70Q415.20 27.25 415.20 31.55L415.20 47.50L408.40 47.50M407.90 36.85L403.25 37.40Q401.85 37.60 401.13 38.27Q400.40 38.95 400.40 39.95Q400.40 40.90 401.20 41.55Q402 42.20 403.40 42.20Q404.80 42.20 405.80 41.63Q406.80 41.05 407.35 39.98Q407.90 38.90 407.90 37.30L407.90 36.85ZM420.45 11.50L427.75 11.50L427.75 47.50L420.45 47.50L420.45 11.50ZM446.05 30Q446.05 26.10 447.38 22.82Q448.70 19.55 451.05 17.15Q453.40 14.75 456.65 13.45Q459.90 12.15 463.70 12.15Q469.35 12.15 473.55 14.90Q477.75 17.65 479.65 22.60L473.05 24.25Q472.10 22.25 470.65 21.02Q469.20 19.80 467.45 19.22Q465.70 18.65 463.75 18.65Q460.75 18.65 458.50 20.13Q456.25 21.60 455.02 24.15Q453.80 26.70 453.80 30Q453.80 33.35 455.02 35.90Q456.25 38.45 458.50 39.90Q460.75 41.35 463.75 41.35Q465.75 41.35 467.57 40.75Q469.40 40.15 470.93 38.75Q472.45 37.35 473.50 35L480 36.50Q478 42.05 473.75 44.95Q469.50 47.85 463.70 47.85Q459.90 47.85 456.65 46.55Q453.40 45.25 451.05 42.88Q448.70 40.50 447.38 37.23Q446.05 33.95 446.05 30ZM484.80 22.50L491.45 22.50L491.95 25.80Q492.90 24.50 494.23 23.63Q495.55 22.75 497.18 22.45Q498.80 22.15 500.75 22.50L500.75 29.40Q499.45 28.95 497.95 29.13Q496.45 29.30 495.10 30.13Q493.75 30.95 492.93 32.55Q492.10 34.15 492.10 36.60L492.10 47.50L484.80 47.50L484.80 22.50ZM515.55 47.85Q511.70 47.85 508.85 46.23Q506 44.60 504.42 41.65Q502.85 38.70 502.85 34.75Q502.85 31.10 504.40 28.25Q505.95 25.40 508.75 23.77Q511.55 22.15 515.10 22.15Q518.85 22.15 521.60 23.67Q524.35 25.20 525.90 28Q527.45 30.80 527.45 34.50Q527.45 35.10 527.40 35.75Q527.35 36.40 527.25 37.20L510.65 37.20Q510.90 38.55 511.60 39.52Q512.30 40.50 513.38 41.02Q514.45 41.55 515.85 41.55Q517.40 41.55 518.65 40.90Q519.90 40.25 520.50 39.05L527.05 40.85Q525.55 44.20 522.55 46.02Q519.55 47.85 515.55 47.85M519.50 32.45Q519.45 31.20 518.85 30.25Q518.25 29.30 517.30 28.75Q516.35 28.20 515.20 28.25Q514.05 28.30 513.13 28.82Q512.20 29.35 511.55 30.27Q510.90 31.20 510.75 32.45L519.50 32.45ZM546.35 47.50L545.85 44.40Q544.55 46 543.05 46.90Q541.55 47.80 539.05 47.80Q536.70 47.80 534.85 46.98Q533 46.15 531.93 44.55Q530.85 42.95 530.85 40.70Q530.85 37.60 533.08 35.55Q535.30 33.50 540 33L545.85 32.35L545.85 30.70Q545.85 29.85 545.02 29.02Q544.20 28.20 542.45 28.20Q540.90 28.20 539.77 29Q538.65 29.80 538.25 31.30L532 29.05Q533.10 25.70 535.88 23.92Q538.65 22.15 542.75 22.15Q547.85 22.15 550.50 24.70Q553.15 27.25 553.15 31.55L553.15 47.50L546.35 47.50M545.85 36.85L541.20 37.40Q539.80 37.60 539.08 38.27Q538.35 38.95 538.35 39.95Q538.35 40.90 539.15 41.55Q539.95 42.20 541.35 42.20Q542.75 42.20 543.75 41.63Q544.75 41.05 545.30 39.98Q545.85 38.90 545.85 37.30L545.85 36.85ZM560.35 22.50L560.35 15.50L567.80 15.50L567.80 22.50L572.95 22.50L572.95 28.95L567.80 28.95L567.80 37.95Q567.80 39.65 568.58 40.35Q569.35 41.05 570.55 41.08Q571.75 41.10 572.95 40.90L572.95 47.25Q570.40 47.70 568.10 47.52Q565.80 47.35 564.08 46.30Q562.35 45.25 561.35 43.20Q560.35 41.15 560.35 37.95L560.35 28.95L556.85 28.95L556.85 22.50L560.35 22.50ZM578 22.50L585.30 22.50L585.30 47.50L578 47.50L578 22.50M581.65 19.95Q579.60 19.95 578.33 18.72Q577.05 17.50 577.05 15.75Q577.05 13.95 578.33 12.73Q579.60 11.50 581.65 11.50Q583.65 11.50 584.92 12.73Q586.20 13.95 586.20 15.75Q586.20 17.50 584.92 18.72Q583.65 19.95 581.65 19.95ZM597.75 22.50L603.05 38.90L608.35 22.50L616.20 22.50L607.10 47.50L598.95 47.50L589.90 22.50L597.75 22.50ZM620.85 22.50L628.15 22.50L628.15 47.50L620.85 47.50L620.85 22.50M624.50 19.95Q622.45 19.95 621.18 18.72Q619.90 17.50 619.90 15.75Q619.90 13.95 621.18 12.73Q622.45 11.50 624.50 11.50Q626.50 11.50 627.77 12.73Q629.05 13.95 629.05 15.75Q629.05 17.50 627.77 18.72Q626.50 19.95 624.50 19.95ZM636.55 22.50L636.55 15.50L644.00 15.50L644.00 22.50L649.15 22.50L649.15 28.95L644.00 28.95L644.00 37.95Q644.00 39.65 644.78 40.35Q645.55 41.05 646.75 41.08Q647.95 41.10 649.15 40.90L649.15 47.25Q646.60 47.70 644.30 47.52Q642.00 47.35 640.28 46.30Q638.55 45.25 637.55 43.20Q636.55 41.15 636.55 37.95L636.55 28.95L633.05 28.95L633.05 22.50L636.55 22.50ZM670.45 22.50L678.35 22.50L663.55 57.50L656.10 57.50L661.05 46.35L651.15 22.50L659.30 22.50L664.85 37.45L670.45 22.50Z"/></g><g transform="translate(0, 62.5)"><path d=""/></g><g transform="translate(0, 125)"><path d=""/></g><g transform="translate(0, 187.5)"><path d=""/></g><g transform="translate(0, 250)"><path d=""/></g></g></g></svg>